# Blender 3.6.1
# www.blender.org
mtllib Hose_segment.mtl
o Circle.001
v -0.250000 0.000000 -0.250000
v -0.250000 -0.048773 -0.245196
v -0.250000 -0.095671 -0.230970
v -0.250000 -0.138893 -0.207867
v -0.250000 -0.176777 -0.176777
v -0.250000 -0.207867 -0.138893
v -0.250000 -0.230970 -0.095671
v -0.250000 -0.245196 -0.048773
v -0.250000 -0.250000 -0.000000
v -0.250000 -0.245196 0.048773
v -0.250000 -0.230970 0.095671
v -0.250000 -0.207867 0.138893
v -0.250000 -0.176777 0.176777
v -0.250000 -0.138893 0.207867
v -0.250000 -0.095671 0.230970
v -0.250000 -0.048773 0.245196
v -0.250000 -0.000000 0.250000
v -0.250000 0.048773 0.245196
v -0.250000 0.095671 0.230970
v -0.250000 0.138893 0.207867
v -0.250000 0.176777 0.176777
v -0.250000 0.207867 0.138893
v -0.250000 0.230970 0.095671
v -0.250000 0.245196 0.048773
v -0.250000 0.250000 0.000000
v -0.250000 0.245196 -0.048773
v -0.250000 0.230970 -0.095671
v -0.250000 0.207867 -0.138893
v -0.250000 0.176777 -0.176777
v -0.250000 0.138893 -0.207867
v -0.250000 0.095671 -0.230970
v -0.250000 0.048773 -0.245196
v 0.250000 0.000000 -0.250000
v 0.250000 -0.048773 -0.245196
v 0.250000 -0.095671 -0.230970
v 0.250000 -0.138893 -0.207867
v 0.250000 -0.176777 -0.176777
v 0.250000 -0.207867 -0.138893
v 0.250000 -0.230970 -0.095671
v 0.250000 -0.245196 -0.048773
v 0.250000 -0.250000 -0.000000
v 0.250000 -0.245196 0.048773
v 0.250000 -0.230970 0.095671
v 0.250000 -0.207867 0.138893
v 0.250000 -0.176777 0.176777
v 0.250000 -0.138893 0.207867
v 0.250000 -0.095671 0.230970
v 0.250000 -0.048773 0.245196
v 0.250000 -0.000000 0.250000
v 0.250000 0.048773 0.245196
v 0.250000 0.095671 0.230970
v 0.250000 0.138893 0.207867
v 0.250000 0.176777 0.176777
v 0.250000 0.207867 0.138893
v 0.250000 0.230970 0.095671
v 0.250000 0.245196 0.048773
v 0.250000 0.250000 0.000000
v 0.250000 0.245196 -0.048773
v 0.250000 0.230970 -0.095671
v 0.250000 0.207867 -0.138893
v 0.250000 0.176777 -0.176777
v 0.250000 0.138893 -0.207867
v 0.250000 0.095671 -0.230970
v 0.250000 0.048773 -0.245196
vn -0.6857 0.5147 0.5147
vn 0.6857 0.5147 0.5147
vn 0.6857 0.6052 0.4044
vn -0.6857 0.6052 0.4044
vn -0.6857 -0.7139 -0.1420
vn 0.6857 -0.7139 -0.1420
vn 0.6857 -0.7279 -0.0000
vn -0.6857 -0.7279 -0.0000
vn 0.6857 0.6725 0.2786
vn -0.6857 0.6725 0.2786
vn 0.6857 -0.7139 0.1420
vn -0.6857 -0.7139 0.1420
vn 0.6857 0.7139 0.1420
vn -0.6857 0.7139 0.1420
vn 0.6857 -0.6725 0.2786
vn -0.6857 -0.6725 0.2786
vn 0.6857 0.7279 -0.0000
vn -0.6857 0.7279 -0.0000
vn 0.6857 -0.6052 0.4044
vn -0.6857 -0.6052 0.4044
vn 0.6857 0.7139 -0.1420
vn -0.6857 0.7139 -0.1420
vn 0.6857 -0.5147 0.5147
vn -0.6857 -0.5147 0.5147
vn 0.6857 0.6725 -0.2786
vn -0.6857 0.6725 -0.2786
vn 0.6857 -0.4044 0.6052
vn -0.6857 -0.4044 0.6052
vn 0.6857 0.6052 -0.4044
vn -0.6857 0.6052 -0.4044
vn 0.6857 -0.2786 0.6725
vn -0.6857 -0.2786 0.6725
vn -0.6857 -0.0000 -0.7279
vn 0.6857 -0.0000 -0.7279
vn 0.6857 -0.1420 -0.7139
vn -0.6857 -0.1420 -0.7139
vn 0.6857 0.5147 -0.5147
vn -0.6857 0.5147 -0.5147
vn 0.6857 -0.1420 0.7139
vn -0.6857 -0.1420 0.7139
vn 0.6857 -0.2786 -0.6725
vn -0.6857 -0.2786 -0.6725
vn 0.6857 0.4044 -0.6052
vn -0.6857 0.4044 -0.6052
vn 0.6857 -0.0000 0.7279
vn -0.6857 -0.0000 0.7279
vn 0.6857 -0.4044 -0.6052
vn -0.6857 -0.4044 -0.6052
vn 0.6857 0.2786 -0.6725
vn -0.6857 0.2786 -0.6725
vn 0.6857 0.1420 0.7139
vn -0.6857 0.1420 0.7139
vn 0.6857 -0.5147 -0.5147
vn -0.6857 -0.5147 -0.5147
vn 0.6857 0.1420 -0.7139
vn -0.6857 0.1420 -0.7139
vn 0.6857 0.2786 0.6725
vn -0.6857 0.2786 0.6725
vn 0.6857 -0.6052 -0.4044
vn -0.6857 -0.6052 -0.4044
vn 0.6857 0.4044 0.6052
vn -0.6857 0.4044 0.6052
vn 0.6857 -0.6725 -0.2786
vn -0.6857 -0.6725 -0.2786
vn -1.0000 -0.0000 -0.0000
vn 1.0000 -0.0000 -0.0000
vt 0.000000 0.000000
s 1
usemtl BLACK
f 21/1/1 53/1/2 54/1/3 22/1/4
f 8/1/5 40/1/6 41/1/7 9/1/8
f 22/1/4 54/1/3 55/1/9 23/1/10
f 9/1/8 41/1/7 42/1/11 10/1/12
f 23/1/10 55/1/9 56/1/13 24/1/14
f 10/1/12 42/1/11 43/1/15 11/1/16
f 24/1/14 56/1/13 57/1/17 25/1/18
f 11/1/16 43/1/15 44/1/19 12/1/20
f 25/1/18 57/1/17 58/1/21 26/1/22
f 12/1/20 44/1/19 45/1/23 13/1/24
f 26/1/22 58/1/21 59/1/25 27/1/26
f 13/1/24 45/1/23 46/1/27 14/1/28
f 27/1/26 59/1/25 60/1/29 28/1/30
f 14/1/28 46/1/27 47/1/31 15/1/32
f 1/1/33 33/1/34 34/1/35 2/1/36
f 28/1/30 60/1/29 61/1/37 29/1/38
f 15/1/32 47/1/31 48/1/39 16/1/40
f 2/1/36 34/1/35 35/1/41 3/1/42
f 29/1/38 61/1/37 62/1/43 30/1/44
f 16/1/40 48/1/39 49/1/45 17/1/46
f 3/1/42 35/1/41 36/1/47 4/1/48
f 30/1/44 62/1/43 63/1/49 31/1/50
f 17/1/46 49/1/45 50/1/51 18/1/52
f 4/1/48 36/1/47 37/1/53 5/1/54
f 31/1/50 63/1/49 64/1/55 32/1/56
f 18/1/52 50/1/51 51/1/57 19/1/58
f 5/1/54 37/1/53 38/1/59 6/1/60
f 32/1/56 64/1/55 33/1/34 1/1/33
f 19/1/58 51/1/57 52/1/61 20/1/62
f 6/1/60 38/1/59 39/1/63 7/1/64
f 20/1/62 52/1/61 53/1/2 21/1/1
f 7/1/64 39/1/63 40/1/6 8/1/5
s 0
f 2/1/65 3/1/65 4/1/65 5/1/65 6/1/65 7/1/65 8/1/65 9/1/65 10/1/65 11/1/65 12/1/65 13/1/65 14/1/65 15/1/65 16/1/65 17/1/65 18/1/65 19/1/65 20/1/65 21/1/65 22/1/65 23/1/65 24/1/65 25/1/65 26/1/65 27/1/65 28/1/65 29/1/65 30/1/65 31/1/65 32/1/65 1/1/65
f 34/1/66 33/1/66 64/1/66 63/1/66 62/1/66 61/1/66 60/1/66 59/1/66 58/1/66 57/1/66 56/1/66 55/1/66 54/1/66 53/1/66 52/1/66 51/1/66 50/1/66 49/1/66 48/1/66 47/1/66 46/1/66 45/1/66 44/1/66 43/1/66 42/1/66 41/1/66 40/1/66 39/1/66 38/1/66 37/1/66 36/1/66 35/1/66
