# Blender 3.6.1
# www.blender.org
mtllib WaterPack_Inner.mtl
o Cube.017
v 0.000000 1.628561 -1.002639
v 0.000000 3.217085 -0.851104
v 0.000000 1.814732 -0.452471
v 0.000000 3.217085 -0.451792
v 0.000000 2.776012 -0.352879
v 0.000000 2.247262 -0.352876
v 0.000000 2.776012 -0.950017
v -0.000000 2.246242 -0.950002
v -0.604881 2.243153 -0.465961
v -0.611203 2.774941 -0.455077
v -0.587341 2.250034 -0.848522
v -0.611203 2.774940 -0.847820
v -0.463312 1.859309 -0.502705
v -0.550384 3.183448 -0.509738
v -0.458135 1.856016 -0.801768
v -0.555125 3.172893 -0.798241
v 0.000000 2.510748 -0.950000
v 0.000000 3.035187 -0.937075
v 0.000000 3.035187 -0.365821
v 0.000000 2.510747 -0.352896
v 0.000000 3.278638 -0.651448
v 0.000000 1.992943 -0.365733
v -0.000000 2.157640 -0.958177
v -0.601093 3.028729 -0.463938
v -0.607964 2.510543 -0.848109
v -0.354755 3.209208 -0.841467
v -0.533489 1.999161 -0.840475
v -0.486525 1.832394 -0.653106
v -0.586190 3.205144 -0.646612
v -0.553692 2.005176 -0.472537
v -0.289633 1.822779 -0.461037
v -0.607964 2.510543 -0.454787
v -0.228510 1.765649 -0.976274
v -0.601093 3.028728 -0.838959
v -0.356665 3.213651 -0.466289
v -0.347489 2.247442 -0.366293
v -0.361600 2.775619 -0.366436
v -0.668598 2.247499 -0.634798
v -0.692780 2.774736 -0.651448
v -0.347112 2.247596 -0.936692
v -0.361600 2.775619 -0.936460
v -0.689425 2.510921 -0.651448
v -0.360139 3.033998 -0.923799
v -0.679329 3.031559 -0.651448
v -0.611977 2.006735 -0.631448
v -0.279369 1.764051 -0.658661
v -0.359707 2.510404 -0.366412
v -0.361674 3.267733 -0.646833
v -0.229866 2.025123 -0.948593
v -0.360139 3.033998 -0.379097
v -0.319488 1.994408 -0.378596
v -0.359707 2.510403 -0.936484
v 0.604881 2.243153 -0.465961
v 0.611203 2.774941 -0.455077
v 0.587341 2.250034 -0.848522
v 0.611203 2.774940 -0.847820
v 0.463312 1.859309 -0.502705
v 0.550384 3.183448 -0.509738
v 0.458135 1.856016 -0.801768
v 0.555125 3.172893 -0.798241
v 0.601093 3.028729 -0.463938
v 0.607964 2.510543 -0.848109
v 0.354755 3.209208 -0.841467
v 0.533489 1.999161 -0.840475
v 0.486525 1.832394 -0.653106
v 0.586190 3.205144 -0.646612
v 0.553692 2.005176 -0.472537
v 0.289633 1.822779 -0.461037
v 0.607964 2.510543 -0.454787
v 0.228510 1.765649 -0.976274
v 0.601093 3.028728 -0.838959
v 0.356665 3.213651 -0.466289
v 0.347489 2.247442 -0.366293
v 0.361600 2.775619 -0.366436
v 0.668598 2.247499 -0.634798
v 0.692780 2.774736 -0.651448
v 0.347112 2.247596 -0.936692
v 0.361600 2.775619 -0.936460
v 0.689425 2.510921 -0.651448
v 0.360139 3.033998 -0.923799
v 0.679329 3.031559 -0.651448
v 0.611977 2.006735 -0.631448
v 0.279369 1.764051 -0.658661
v 0.359707 2.510404 -0.366412
v 0.361674 3.267733 -0.646833
v 0.229866 2.025123 -0.948593
v 0.360139 3.033998 -0.379097
v 0.319488 1.994408 -0.378596
v 0.359707 2.510403 -0.936484
v 0.000000 1.726180 -0.662927
v -0.000000 2.145421 -1.069500
v 0.000000 1.618251 -1.069500
v -0.228271 1.750043 -1.069500
v -0.228271 2.013628 -1.069500
v 0.228271 1.750043 -1.069500
v 0.228271 2.013628 -1.069500
vn -0.9261 -0.0847 -0.3676
vn -0.9289 -0.0380 0.3685
vn -0.9236 -0.0113 0.3831
vn -0.9236 -0.0113 -0.3831
vn -0.0372 0.0495 -0.9981
vn -0.3335 0.0471 -0.9416
vn -0.2905 0.3843 -0.8763
vn -0.0344 0.4265 -0.9038
vn -0.9220 0.0492 -0.3842
vn -0.9220 0.0492 0.3842
vn -0.8489 0.4131 0.3297
vn -0.8511 0.4181 -0.3175
vn -0.8084 -0.5255 -0.2651
vn -0.7828 -0.5686 0.2529
vn -0.9147 -0.2135 -0.3431
vn -0.2788 -0.9301 0.2392
vn -0.3806 -0.9177 -0.1143
vn -0.3482 -0.0296 0.9370
vn -0.0381 -0.0006 0.9993
vn -0.0375 -0.0001 0.9993
vn -0.3350 -0.0027 0.9422
vn -0.2444 0.9311 -0.2709
vn -0.0231 0.9564 0.2912
vn -0.0309 0.9560 -0.2917
vn -1.0000 -0.0022 -0.0083
vn -0.4760 -0.1146 -0.8720
vn -0.3330 -0.1127 -0.9362
vn -0.0499 0.0456 -0.9977
vn -0.3335 0.0471 0.9416
vn -0.0372 0.0495 0.9981
vn -0.0377 0.4319 0.9011
vn -0.2896 0.3939 0.8723
vn -0.3296 -0.4240 0.8435
vn -0.0384 -0.4377 0.8983
vn -0.0394 -0.0517 0.9979
vn -0.3659 -0.0946 0.9258
vn -0.0379 -0.0005 -0.9993
vn -0.3399 -0.0205 -0.9402
vn -0.3350 -0.0027 -0.9422
vn -0.0375 -0.0001 -0.9993
vn 0.9177 0.2089 -0.3378
vn 0.9261 -0.0847 -0.3676
vn 0.9289 -0.0380 0.3685
vn 0.9236 -0.0113 0.3831
vn 0.9236 -0.0113 -0.3831
vn 0.0372 0.0495 -0.9981
vn 0.3335 0.0471 -0.9416
vn 0.2905 0.3843 -0.8763
vn 0.0344 0.4265 -0.9038
vn 0.9220 0.0492 -0.3842
vn 0.9220 0.0492 0.3842
vn 0.8489 0.4131 0.3297
vn 0.8511 0.4181 -0.3175
vn 0.8084 -0.5255 -0.2651
vn 0.7828 -0.5686 0.2529
vn 0.9147 -0.2135 -0.3431
vn 0.2788 -0.9301 0.2392
vn 0.3806 -0.9177 -0.1143
vn 0.3482 -0.0296 0.9370
vn 0.0381 -0.0006 0.9993
vn 0.0375 -0.0001 0.9993
vn 0.3350 -0.0027 0.9422
vn 0.2444 0.9311 -0.2709
vn 0.0231 0.9564 0.2912
vn 0.0309 0.9560 -0.2917
vn -0.4965 -0.8570 0.1380
vn 0.4760 -0.1146 -0.8720
vn 0.3330 -0.1127 -0.9362
vn 0.0499 0.0456 -0.9977
vn 0.3335 0.0471 0.9416
vn 0.0372 0.0495 0.9981
vn 0.0377 0.4319 0.9011
vn 0.2896 0.3939 0.8723
vn 0.3296 -0.4240 0.8435
vn 0.0384 -0.4377 0.8983
vn 0.0394 -0.0517 0.9979
vn 0.3659 -0.0946 0.9258
vn 0.0379 -0.0005 -0.9993
vn 0.3399 -0.0205 -0.9402
vn 0.3350 -0.0027 -0.9422
vn 0.0375 -0.0001 -0.9993
vn -0.9177 0.2089 -0.3378
vn 0.3175 -0.9415 0.1130
vn 0.0783 -0.9384 0.3367
vn -0.0783 -0.9384 0.3367
vn -0.3175 -0.9415 0.1130
vn -0.0000 -0.0000 -1.0000
vn 0.4991 0.8617 -0.0914
vn -0.4991 0.8617 -0.0914
vn 1.0000 -0.0022 -0.0083
vn 0.4965 -0.8570 0.1380
vn -0.2344 0.9383 0.2542
vn 0.2344 0.9383 0.2542
vt 0.458333 0.520833
vt 0.458333 0.625000
vt 0.500000 0.625000
vt 0.500000 0.520833
vt 0.458333 0.729167
vt 0.500000 0.729167
vt 0.541667 0.729167
vt 0.541667 0.625000
vt 0.541667 0.520833
vt 0.541667 0.375000
vt 0.541667 0.440104
vt 0.583333 0.439670
vt 0.583333 0.375000
vt 0.583478 0.519097
vt 0.625000 0.500000
vt 0.625000 0.437500
vt 0.625000 0.375000
vt 0.583912 0.625000
vt 0.583478 0.730903
vt 0.625000 0.750000
vt 0.630787 0.625000
vt 0.375000 0.500000
vt 0.369213 0.625000
vt 0.416088 0.625000
vt 0.416522 0.519097
vt 0.375000 0.750000
vt 0.416522 0.730903
vt 0.311921 0.625000
vt 0.312500 0.750000
vt 0.312500 0.500000
vt 0.458333 0.809896
vt 0.500000 0.809896
vt 0.458333 0.875000
vt 0.500000 0.875000
vt 0.541667 0.875000
vt 0.541667 0.809896
vt 0.688079 0.625000
vt 0.687500 0.500000
vt 0.687500 0.750000
vt 0.750000 0.750000
vt 0.750000 0.625000
vt 0.750000 0.500000
vt 0.375000 0.437500
vt 0.416667 0.439670
vt 0.458333 0.440104
vt 0.440111 0.375064
vt 0.458333 0.375000
vt 0.583333 0.810330
vt 0.583333 0.875000
vt 0.625000 0.875000
vt 0.625000 0.812500
vt 0.375000 0.812500
vt 0.416667 0.810330
vt 0.375000 0.875000
vt 0.416667 0.875000
vt 0.500000 0.440104
vt 0.500000 0.375000
vt 0.000000 0.000000
vt 0.375000 0.375000
s 0
usemtl white
f 11/1/1 38/2/1 42/3/1 25/4/1
f 38/2/2 9/5/2 32/6/2 42/3/2
f 42/3/3 32/6/3 10/7/3 39/8/3
f 25/4/4 42/3/4 39/8/4 12/9/4
f 7/10/5 41/11/5 43/12/5 18/13/5
f 41/11/6 12/9/6 34/14/6 43/12/6
f 43/12/7 34/14/7 16/15/7 26/16/7
f 18/13/8 43/12/8 26/16/8 2/17/8
f 12/9/9 39/8/9 44/18/9 34/14/9
f 39/8/10 10/7/10 24/19/10 44/18/10
f 44/18/11 24/19/11 14/20/11 29/21/11
f 34/14/12 44/18/12 29/21/12 16/15/12
f 15/22/13 28/23/13 45/24/13 27/25/13
f 28/23/14 13/26/14 30/27/14 45/24/14
f 27/25/15 45/24/15 38/2/15 11/1/15
f 46/28/16 31/29/16 13/26/16 28/23/16
f 33/30/17 46/28/17 28/23/17 15/22/17
f 9/5/18 36/31/18 47/32/18 32/6/18
f 36/31/19 6/33/19 20/34/19 47/32/19
f 47/32/20 20/34/20 5/35/20 37/36/20
f 32/6/21 47/32/21 37/36/21 10/7/21
f 16/15/22 29/21/22 48/37/22 26/38/22
f 48/37/23 35/39/23 4/40/23 21/41/23
f 26/38/24 48/37/24 21/41/24 2/42/24
f 33/43/25 49/44/25 94/44/25 93/43/25
f 33/43/26 15/22/26 27/25/26 49/44/26
f 49/44/27 27/25/27 11/1/27 40/45/27
f 23/46/28 49/44/28 40/45/28 8/47/28
f 10/7/29 37/36/29 50/48/29 24/19/29
f 37/36/30 5/35/30 19/49/30 50/48/30
f 50/48/31 19/49/31 4/50/31 35/51/31
f 24/19/32 50/48/32 35/51/32 14/20/32
f 13/26/33 31/52/33 51/53/33 30/27/33
f 31/52/34 3/54/34 22/55/34 51/53/34
f 51/53/35 22/55/35 6/33/35 36/31/35
f 30/27/36 51/53/36 36/31/36 9/5/36
f 8/47/37 40/45/37 52/56/37 17/57/37
f 40/45/38 11/1/38 25/4/38 52/56/38
f 52/56/39 25/4/39 12/9/39 41/11/39
f 17/57/40 52/56/40 41/11/40 7/10/40
f 38/58/41 9/58/41 30/58/41 45/58/41
f 55/1/42 62/4/42 79/3/42 75/2/42
f 75/2/43 79/3/43 69/6/43 53/5/43
f 79/3/44 76/8/44 54/7/44 69/6/44
f 62/4/45 56/9/45 76/8/45 79/3/45
f 7/10/46 18/13/46 80/12/46 78/11/46
f 78/11/47 80/12/47 71/14/47 56/9/47
f 80/12/48 63/16/48 60/15/48 71/14/48
f 18/13/49 2/17/49 63/16/49 80/12/49
f 56/9/50 71/14/50 81/18/50 76/8/50
f 76/8/51 81/18/51 61/19/51 54/7/51
f 81/18/52 66/21/52 58/20/52 61/19/52
f 71/14/53 60/15/53 66/21/53 81/18/53
f 59/22/54 64/25/54 82/24/54 65/23/54
f 65/23/55 82/24/55 67/27/55 57/26/55
f 64/25/56 55/1/56 75/2/56 82/24/56
f 83/28/57 65/23/57 57/26/57 68/29/57
f 70/30/58 59/22/58 65/23/58 83/28/58
f 53/5/59 69/6/59 84/32/59 73/31/59
f 73/31/60 84/32/60 20/34/60 6/33/60
f 84/32/61 74/36/61 5/35/61 20/34/61
f 69/6/62 54/7/62 74/36/62 84/32/62
f 60/15/63 63/38/63 85/37/63 66/21/63
f 85/37/64 21/41/64 4/40/64 72/39/64
f 63/38/65 2/42/65 21/41/65 85/37/65
f 1/59/66 33/30/66 93/30/66 92/59/66
f 70/43/67 86/44/67 64/25/67 59/22/67
f 86/44/68 77/45/68 55/1/68 64/25/68
f 23/46/69 8/47/69 77/45/69 86/44/69
f 54/7/70 61/19/70 87/48/70 74/36/70
f 74/36/71 87/48/71 19/49/71 5/35/71
f 87/48/72 72/51/72 4/50/72 19/49/72
f 61/19/73 58/20/73 72/51/73 87/48/73
f 57/26/74 67/27/74 88/53/74 68/52/74
f 68/52/75 88/53/75 22/55/75 3/54/75
f 88/53/76 73/31/76 6/33/76 22/55/76
f 67/27/77 53/5/77 73/31/77 88/53/77
f 8/47/78 17/57/78 89/56/78 77/45/78
f 77/45/79 89/56/79 62/4/79 55/1/79
f 89/56/80 78/11/80 56/9/80 62/4/80
f 17/57/81 7/10/81 78/11/81 89/56/81
f 75/58/82 82/58/82 67/58/82 53/58/82
f 1/59/83 70/43/83 83/28/83 90/58/83
f 3/54/84 90/58/84 83/28/84 68/29/84
f 3/54/85 31/29/85 46/28/85 90/58/85
f 1/59/86 90/58/86 46/28/86 33/30/86
f 92/59/87 93/43/87 94/44/87 91/46/87
f 92/59/87 91/46/87 96/44/87 95/43/87
f 23/46/88 86/44/88 96/44/88 91/46/88
f 49/44/89 23/46/89 91/46/89 94/44/89
f 86/44/90 70/43/90 95/43/90 96/44/90
f 70/43/91 1/59/91 92/59/91 95/43/91
f 29/21/92 14/20/92 35/39/92 48/37/92
f 66/21/93 85/37/93 72/39/93 58/20/93
