# Blender 3.6.1
# www.blender.org
mtllib WaterPack_Medium.mtl
o Cube.018
v 0.000000 1.578630 -1.000000
v 0.000000 1.777515 -0.419080
v 0.000000 2.245843 -0.302896
v 0.000000 2.245843 -1.000000
v -0.622243 2.244013 -0.419080
v -0.622243 2.244013 -0.883816
v -0.489092 1.824907 -0.477172
v -0.581297 3.205446 -0.477172
v -0.489092 1.824907 -0.825724
v 0.000000 2.510722 -1.000000
v 0.000000 2.510722 -0.302896
v 0.000000 1.980070 -0.317419
v -0.000000 2.185041 -1.000000
v -0.642930 2.508984 -0.883816
v -0.567934 1.985066 -0.873865
v -0.517762 1.793388 -0.651448
v -0.623757 3.237782 -0.651448
v -0.567934 1.985065 -0.429031
v -0.299079 1.785545 -0.429031
v -0.642930 2.508984 -0.419080
v -0.262584 1.730233 -0.985477
v -0.363011 3.246386 -0.429031
v -0.357790 2.245157 -0.317419
v -0.715579 2.243556 -0.651448
v -0.357790 2.245157 -0.985477
v -0.739369 2.508549 -0.651448
v -0.650339 1.981669 -0.651448
v -0.293119 1.716522 -0.651448
v -0.369685 2.510071 -0.317419
v -0.367198 3.317212 -0.651448
v -0.262584 2.033438 -0.985477
v -0.329370 1.981169 -0.331404
v -0.369685 2.510070 -0.985477
v -0.602527 3.328159 0.148778
v -0.602527 3.276577 0.148778
v -0.365104 3.276577 0.148778
v -0.365104 3.328159 0.148778
v -0.602527 2.686688 0.508074
v -0.602527 2.686688 0.456492
v -0.365104 2.686688 0.456492
v -0.365104 2.686688 0.508074
v -0.875497 2.341000 0.021402
v -0.823915 2.341000 0.021402
v -0.823915 2.103577 0.021402
v -0.875497 2.103577 0.021402
v -0.616278 3.325904 -0.206436
v -0.384109 3.330257 -0.200922
v -0.406940 3.468276 -0.225792
v -0.654746 3.431195 -0.231905
v -0.602527 3.069076 0.380769
v -0.365104 3.069075 0.380769
v -0.365104 3.095031 0.425344
v -0.602527 3.095032 0.425344
v -0.655495 2.440784 0.477129
v -0.772106 2.351163 0.363777
v -0.486473 2.310736 0.516500
v -0.700930 2.148789 0.395556
v -0.501857 2.304072 0.560532
v -0.737585 2.140354 0.423932
v -0.808761 2.342727 0.392153
v -0.670879 2.434120 0.521161
v -0.734847 2.033221 -0.248631
v -0.869028 2.027890 -0.301715
v -0.870524 2.277096 -0.348060
v -0.729234 2.279933 -0.294881
v 0.622243 2.244013 -0.419080
v 0.622243 2.244013 -0.883816
v 0.489092 1.824907 -0.477172
v 0.581297 3.205446 -0.477172
v 0.489092 1.824907 -0.825724
v 0.642930 2.508984 -0.883816
v 0.567934 1.985066 -0.873865
v 0.517762 1.793388 -0.651448
v 0.623757 3.237782 -0.651448
v 0.567934 1.985065 -0.429031
v 0.299079 1.785545 -0.429031
v 0.642930 2.508984 -0.419080
v 0.262584 1.730233 -0.985477
v 0.363011 3.246386 -0.429031
v 0.357790 2.245157 -0.317419
v 0.715579 2.243556 -0.651448
v 0.357790 2.245157 -0.985477
v 0.739369 2.508549 -0.651448
v 0.650339 1.981669 -0.651448
v 0.293119 1.716522 -0.651448
v 0.369685 2.510071 -0.317419
v 0.367198 3.317212 -0.651448
v 0.262584 2.033438 -0.985477
v 0.329370 1.981169 -0.331404
v 0.369685 2.510070 -0.985477
v 0.602527 3.328159 0.148778
v 0.602527 3.276577 0.148778
v 0.365104 3.276577 0.148778
v 0.365104 3.328159 0.148778
v 0.602527 2.686688 0.508074
v 0.602527 2.686688 0.456492
v 0.365104 2.686688 0.456492
v 0.365104 2.686688 0.508074
v 0.875497 2.341000 0.021402
v 0.823915 2.341000 0.021402
v 0.823915 2.103577 0.021402
v 0.875497 2.103577 0.021402
v 0.616278 3.325904 -0.206436
v 0.384109 3.330257 -0.200922
v 0.406940 3.468276 -0.225792
v 0.654746 3.431195 -0.231905
v 0.602527 3.069076 0.380769
v 0.365104 3.069075 0.380769
v 0.365104 3.095031 0.425344
v 0.602527 3.095032 0.425344
v 0.655495 2.440784 0.477129
v 0.772106 2.351163 0.363777
v 0.486473 2.310736 0.516500
v 0.700930 2.148789 0.395556
v 0.501857 2.304072 0.560532
v 0.737585 2.140354 0.423932
v 0.808761 2.342727 0.392153
v 0.670879 2.434120 0.521161
v 0.734847 2.033221 -0.248631
v 0.869028 2.027890 -0.301715
v 0.870524 2.277096 -0.348060
v 0.729234 2.279933 -0.294881
v 0.000000 1.677515 -0.651448
v -0.000000 2.185041 -1.100000
v 0.000000 1.578630 -1.100000
v -0.262584 1.730233 -1.100000
v -0.262584 2.033438 -1.100000
v 0.262584 1.730233 -1.100000
v 0.262584 2.033438 -1.100000
v 0.000000 2.985887 -0.883816
v 0.000000 2.985887 -0.419080
v -0.581297 2.936433 -0.477172
v -0.581297 2.936434 -0.825724
v 0.000000 2.778713 -0.985477
v 0.000000 2.778713 -0.317419
v 0.000000 3.059626 -0.651448
v -0.634821 2.771712 -0.429031
v -0.363011 2.977374 -0.873865
v -0.623757 2.968770 -0.651448
v -0.634821 2.771712 -0.873865
v -0.363011 2.977374 -0.429031
v -0.369291 2.776886 -0.971492
v -0.727817 2.774752 -0.651448
v -0.367198 3.048200 -0.651448
v -0.369291 2.776886 -0.331404
v 0.581297 2.936433 -0.477172
v 0.581297 2.936434 -0.825724
v 0.634821 2.771712 -0.429031
v 0.363011 2.977374 -0.873865
v 0.623757 2.968770 -0.651448
v 0.634821 2.771712 -0.873865
v 0.363011 2.977374 -0.429031
v 0.369291 2.776886 -0.971492
v 0.727817 2.774752 -0.651448
v 0.367198 3.048200 -0.651448
v 0.369291 2.776886 -0.331404
v -0.581297 2.936433 -0.477172
v -0.623757 2.968770 -0.651448
v -0.363011 2.977374 -0.429031
v -0.367198 3.048200 -0.651448
v 0.581297 2.936433 -0.477172
v 0.623757 2.968770 -0.651448
v 0.363011 2.977374 -0.429031
v 0.367198 3.048200 -0.651448
vn -0.9230 -0.0775 -0.3770
vn -0.9230 -0.0775 0.3770
vn 0.9222 0.0415 0.3844
vn 0.0387 0.0532 0.9978
vn -0.8056 -0.5264 -0.2719
vn -0.8056 -0.5264 0.2719
vn -0.9102 -0.2157 -0.3536
vn -0.2882 -0.9242 0.2507
vn -0.3914 -0.9114 -0.1267
vn -0.3535 -0.0217 0.9352
vn -0.0399 -0.0009 0.9992
vn -0.0387 0.0532 -0.9978
vn 0.9222 0.0415 -0.3844
vn -1.0000 -0.0000 -0.0000
vn -0.4596 -0.1688 -0.8719
vn -0.3380 -0.1271 -0.9325
vn -0.0431 -0.0150 -0.9990
vn -0.3285 -0.4426 0.8344
vn -0.0405 -0.4497 0.8923
vn -0.0414 -0.0559 0.9976
vn -0.3669 -0.1004 0.9248
vn -0.0399 -0.0009 -0.9992
vn -0.3535 -0.0217 -0.9352
vn 0.3470 0.0479 0.9366
vn 0.3470 0.0479 -0.9366
vn -0.0763 0.9463 0.3142
vn 0.9922 0.1125 -0.0532
vn 0.0109 -0.9894 -0.1451
vn -0.9719 -0.2320 0.0391
vn 0.0471 -0.9225 0.3832
vn 0.9857 0.1656 0.0322
vn -0.2034 0.9006 -0.3841
vn -0.9120 -0.3993 0.0944
vn -0.0000 0.1986 0.9801
vn 1.0000 -0.0000 -0.0000
vn -0.0000 -0.1943 -0.9810
vn -0.0000 -0.7454 -0.6667
vn -0.0000 0.7646 0.6445
vn -0.9560 -0.1360 0.2598
vn 0.1159 -0.9911 0.0657
vn 0.9598 0.1376 -0.2448
vn -0.0954 0.9954 -0.0007
vn 0.4831 0.1650 -0.8599
vn 0.0502 -0.1423 -0.9886
vn 0.5038 -0.8436 0.1861
vn 0.9443 -0.3019 0.1309
vn -0.4904 -0.1715 0.8545
vn -0.0574 0.1208 0.9910
vn -0.4694 0.8691 -0.1561
vn -0.9643 0.2253 -0.1394
vn -0.0387 -0.9717 0.2330
vn -0.9999 -0.0046 -0.0156
vn 0.0336 0.9841 -0.1745
vn 0.9552 0.0172 0.2955
vn -0.0957 -0.9897 0.1066
vn -0.8655 -0.1562 -0.4760
vn 0.1041 0.9898 -0.0970
vn 0.7544 0.1190 0.6455
vn 0.9102 0.2157 -0.3536
vn -0.2154 -0.0000 0.9765
vn 0.9230 -0.0775 -0.3770
vn 0.9230 -0.0775 0.3770
vn -0.3470 0.0479 0.9366
vn -0.9222 0.0415 -0.3844
vn 0.8056 -0.5264 -0.2719
vn 0.8056 -0.5264 0.2719
vn 0.9102 -0.2157 -0.3536
vn 0.2882 -0.9242 0.2507
vn 0.3914 -0.9114 -0.1267
vn 0.3535 -0.0217 0.9352
vn 0.0399 -0.0009 0.9992
vn -0.3470 0.0479 -0.9366
vn -0.0387 0.0532 0.9978
vn -0.5000 -0.8660 -0.0000
vn 0.4596 -0.1688 -0.8719
vn 0.3380 -0.1271 -0.9325
vn 0.0431 -0.0150 -0.9990
vn 0.3285 -0.4426 0.8344
vn 0.0405 -0.4497 0.8923
vn 0.0414 -0.0559 0.9976
vn 0.3669 -0.1004 0.9248
vn 0.0399 -0.0009 -0.9992
vn 0.3535 -0.0217 -0.9352
vn -0.9222 0.0415 0.3844
vn 0.0387 0.0532 -0.9978
vn 0.0763 0.9463 0.3142
vn -0.9922 0.1125 -0.0532
vn -0.0109 -0.9894 -0.1451
vn 0.9719 -0.2320 0.0391
vn -0.0471 -0.9225 0.3832
vn -0.9857 0.1656 0.0322
vn 0.2034 0.9006 -0.3841
vn 0.9120 -0.3993 0.0944
vn 0.9560 -0.1360 0.2598
vn -0.1159 -0.9911 0.0657
vn -0.9598 0.1376 -0.2448
vn 0.0954 0.9954 -0.0007
vn -0.4831 0.1650 -0.8599
vn -0.0502 -0.1423 -0.9886
vn -0.5038 -0.8436 0.1861
vn -0.9443 -0.3019 0.1309
vn 0.4904 -0.1715 0.8545
vn 0.0574 0.1208 0.9910
vn 0.4694 0.8691 -0.1561
vn 0.9643 0.2253 -0.1394
vn 0.0387 -0.9717 0.2330
vn 0.9999 -0.0046 -0.0156
vn -0.0336 0.9841 -0.1745
vn -0.9552 0.0172 0.2955
vn 0.0957 -0.9897 0.1066
vn 0.8655 -0.1562 -0.4760
vn -0.1041 0.9898 -0.0970
vn -0.7544 0.1190 0.6455
vn -0.9102 0.2157 -0.3536
vn -0.9998 -0.0000 -0.0188
vn 0.3203 -0.9417 0.1032
vn 0.0801 -0.9347 0.3463
vn -0.0801 -0.9347 0.3463
vn -0.3203 -0.9417 0.1032
vn -0.0000 -0.0000 -1.0000
vn 0.5000 0.8660 -0.0000
vn -0.5000 0.8660 -0.0000
vn 0.5000 -0.8660 -0.0000
vn -0.2993 0.3956 -0.8683
vn -0.0355 0.4394 -0.8976
vn -0.8484 0.4165 0.3268
vn -0.8484 0.4165 -0.3268
vn -0.2623 0.9260 -0.2716
vn -0.0301 0.9525 0.3031
vn -0.0301 0.9525 -0.3031
vn -0.0355 0.4394 0.8976
vn -0.2993 0.3956 0.8683
vn 0.2993 0.3956 -0.8683
vn 0.0355 0.4394 -0.8976
vn 0.8484 0.4165 0.3268
vn 0.8484 0.4165 -0.3268
vn 0.2623 0.9260 -0.2716
vn 0.0301 0.9525 0.3031
vn 0.0301 0.9525 -0.3031
vn 0.0355 0.4394 0.8976
vn 0.2993 0.3956 0.8683
vn 0.2623 -0.9260 -0.2716
vn -0.2623 -0.9260 -0.2716
vn 0.9998 -0.0000 -0.0188
vn 0.9716 -0.0000 0.2367
vn 0.2154 -0.0000 0.9765
vn -0.9716 -0.0000 0.2367
vt 0.458333 0.520833
vt 0.458333 0.625000
vt 0.500000 0.625000
vt 0.500000 0.520833
vt 0.458333 0.729167
vt 0.500000 0.729167
vt 0.583912 0.625000
vt 0.583478 0.730903
vt 0.583333 0.810330
vt 0.583333 0.875000
vt 0.500000 0.875000
vt 0.500000 0.809896
vt 0.375000 0.500000
vt 0.369213 0.625000
vt 0.416088 0.625000
vt 0.416522 0.519097
vt 0.375000 0.750000
vt 0.416522 0.730903
vt 0.311921 0.625000
vt 0.312500 0.750000
vt 0.312500 0.500000
vt 0.458333 0.809896
vt 0.458333 0.875000
vt 0.583333 0.375000
vt 0.500000 0.375000
vt 0.500000 0.440104
vt 0.583333 0.439670
vt 0.583478 0.519097
vt 0.375000 0.437500
vt 0.416667 0.439670
vt 0.458333 0.440104
vt 0.440111 0.375064
vt 0.458333 0.375000
vt 0.375000 0.812500
vt 0.416667 0.810330
vt 0.375000 0.875000
vt 0.416667 0.875000
vt 0.000000 0.000000
vt 0.344039 0.312500
vt 0.315394 0.312500
vt 0.343750 0.375000
vt 0.312500 0.375000
vt 0.312500 0.406250
vt 0.625000 0.750000
vt 0.625000 0.812500
vt 0.687500 0.750000
vt 0.688079 0.625000
vt 0.630787 0.625000
vt 0.208044 0.312500
vt 0.208261 0.365451
vt 0.229167 0.312500
vt 0.229167 0.364583
vt 0.375000 0.375000
vt 0.625000 0.500000
vt 0.625000 0.437500
vt 0.625000 0.375000
vt 0.687500 0.500000
vt 0.750000 0.750000
vt 0.750000 0.625000
vt 0.750000 0.500000
vt 0.625000 0.875000
s 0
usemtl BLACK
f 21/29/14 31/30/14 127/30/14 126/29/14
f 34/38/26 37/38/26 48/39/26 49/40/26
f 37/38/27 36/38/27 47/41/27 48/39/27
f 36/38/28 35/38/28 46/42/28 47/43/28
f 35/38/29 34/38/29 49/40/29 46/42/29
f 47/43/30 46/42/30 8/44/30 22/45/30
f 48/39/31 47/41/31 22/46/31 30/47/31
f 49/40/32 48/39/32 30/47/32 17/48/32
f 46/42/33 49/40/33 17/48/33 8/44/33
f 38/38/34 41/38/34 52/38/34 53/38/34
f 41/38/35 40/38/35 51/38/35 52/38/35
f 40/38/36 39/38/36 50/38/36 51/38/36
f 39/38/14 38/38/14 53/38/14 50/38/14
f 51/38/37 50/38/37 35/38/37 36/38/37
f 52/38/35 51/38/35 36/38/35 37/38/35
f 53/38/38 52/38/38 37/38/38 34/38/38
f 50/38/14 53/38/14 34/38/14 35/38/14
f 42/38/39 45/38/39 59/38/39 60/38/39
f 45/38/40 44/38/40 57/38/40 59/38/40
f 44/38/41 43/38/41 55/38/41 57/38/41
f 43/38/42 42/38/42 60/38/42 55/38/42
f 57/38/43 55/38/43 54/38/43 56/38/43
f 56/38/44 54/38/44 39/38/44 40/38/44
f 59/38/45 57/38/45 56/38/45 58/38/45
f 58/38/46 56/38/46 40/38/46 41/38/46
f 60/38/47 59/38/47 58/38/47 61/38/47
f 61/38/48 58/38/48 41/38/48 38/38/48
f 55/38/49 60/38/49 61/38/49 54/38/49
f 54/38/50 61/38/50 38/38/50 39/38/50
f 44/38/51 45/38/51 63/49/51 62/50/51
f 45/38/52 42/38/52 64/51/52 63/49/52
f 42/38/53 43/38/53 65/52/53 64/51/53
f 43/38/54 44/38/54 62/50/54 65/52/54
f 62/50/55 63/49/55 27/15/55 18/18/55
f 63/49/56 64/51/56 24/2/56 27/15/56
f 64/51/57 65/52/57 5/5/57 24/2/57
f 65/52/58 62/50/58 18/18/58 5/5/58
f 24/38/59 5/38/59 18/38/59 27/38/59
f 22/45/60 8/44/60 157/44/60 159/45/60
f 1/53/74 21/21/74 126/21/74 125/53/74
f 91/38/86 106/40/86 105/39/86 94/38/86
f 94/38/87 105/39/87 104/41/87 93/38/87
f 93/38/88 104/43/88 103/42/88 92/38/88
f 92/38/89 103/42/89 106/40/89 91/38/89
f 104/43/90 79/45/90 69/44/90 103/42/90
f 105/39/91 87/47/91 79/46/91 104/41/91
f 106/40/92 74/48/92 87/47/92 105/39/92
f 103/42/93 69/44/93 74/48/93 106/40/93
f 95/38/34 110/38/34 109/38/34 98/38/34
f 98/38/14 109/38/14 108/38/14 97/38/14
f 97/38/36 108/38/36 107/38/36 96/38/36
f 96/38/35 107/38/35 110/38/35 95/38/35
f 108/38/37 93/38/37 92/38/37 107/38/37
f 109/38/14 94/38/14 93/38/14 108/38/14
f 110/38/38 91/38/38 94/38/38 109/38/38
f 107/38/35 92/38/35 91/38/35 110/38/35
f 99/38/94 117/38/94 116/38/94 102/38/94
f 102/38/95 116/38/95 114/38/95 101/38/95
f 101/38/96 114/38/96 112/38/96 100/38/96
f 100/38/97 112/38/97 117/38/97 99/38/97
f 114/38/98 113/38/98 111/38/98 112/38/98
f 113/38/99 97/38/99 96/38/99 111/38/99
f 116/38/100 115/38/100 113/38/100 114/38/100
f 115/38/101 98/38/101 97/38/101 113/38/101
f 117/38/102 118/38/102 115/38/102 116/38/102
f 118/38/103 95/38/103 98/38/103 115/38/103
f 112/38/104 111/38/104 118/38/104 117/38/104
f 111/38/105 96/38/105 95/38/105 118/38/105
f 101/38/106 119/50/106 120/49/106 102/38/106
f 102/38/107 120/49/107 121/51/107 99/38/107
f 99/38/108 121/51/108 122/52/108 100/38/108
f 100/38/109 122/52/109 119/50/109 101/38/109
f 119/50/110 75/18/110 84/15/110 120/49/110
f 120/49/111 84/15/111 81/2/111 121/51/111
f 121/51/112 81/2/112 66/5/112 122/52/112
f 122/52/113 66/5/113 75/18/113 119/50/113
f 81/38/114 84/38/114 75/38/114 66/38/114
f 79/46/115 87/47/115 164/47/115 163/46/115
f 125/53/120 126/29/120 127/30/120 124/32/120
f 125/53/120 124/32/120 129/30/120 128/29/120
f 13/32/121 88/30/121 129/30/121 124/32/121
f 31/30/122 13/32/122 124/32/122 127/30/122
f 88/30/35 78/29/35 128/29/35 129/30/35
f 78/29/123 1/53/123 125/53/123 128/29/123
f 158/38/142 160/38/142 159/38/142 157/38/142
f 162/38/143 161/38/143 163/38/143 164/38/143
f 30/47/144 22/46/144 159/46/144 160/47/144
f 87/47/120 74/48/120 162/48/120 164/47/120
f 74/48/145 69/44/145 161/44/145 162/48/145
f 17/48/120 30/47/120 160/47/120 158/48/120
f 69/44/146 79/45/146 163/45/146 161/44/146
f 8/44/147 17/48/147 158/48/147 157/44/147
usemtl white
f 6/1/1 24/2/1 26/3/1 14/4/1
f 24/2/2 5/5/2 20/6/2 26/3/2
f 154/7/3 148/8/3 77/6/3 83/3/3
f 156/9/4 135/10/4 11/11/4 86/12/4
f 9/13/5 16/14/5 27/15/5 15/16/5
f 16/14/6 7/17/6 18/18/6 27/15/6
f 15/16/7 27/15/7 24/2/7 6/1/7
f 28/19/8 19/20/8 7/17/8 16/14/8
f 21/21/9 28/19/9 16/14/9 9/13/9
f 5/5/10 23/22/10 29/12/10 20/6/10
f 23/22/11 3/23/11 11/11/11 29/12/11
f 134/24/12 10/25/12 33/26/12 142/27/12
f 151/28/13 154/7/13 83/3/13 71/4/13
f 21/29/15 9/13/15 15/16/15 31/30/15
f 31/30/16 15/16/16 6/1/16 25/31/16
f 13/32/17 31/30/17 25/31/17 4/33/17
f 7/17/18 19/34/18 32/35/18 18/18/18
f 19/34/19 2/36/19 12/37/19 32/35/19
f 32/35/20 12/37/20 3/23/20 23/22/20
f 18/18/21 32/35/21 23/22/21 5/5/21
f 4/33/22 25/31/22 33/26/22 10/25/22
f 25/31/23 6/1/23 14/4/23 33/26/23
f 156/9/24 86/12/24 77/6/24 148/8/24
f 153/27/25 151/28/25 71/4/25 90/26/25
f 67/1/61 71/4/61 83/3/61 81/2/61
f 81/2/62 83/3/62 77/6/62 66/5/62
f 29/12/63 145/9/63 137/8/63 20/6/63
f 26/3/64 143/7/64 140/28/64 14/4/64
f 70/13/65 72/16/65 84/15/65 73/14/65
f 73/14/66 84/15/66 75/18/66 68/17/66
f 72/16/67 67/1/67 81/2/67 84/15/67
f 85/19/68 73/14/68 68/17/68 76/20/68
f 78/21/69 70/13/69 73/14/69 85/19/69
f 66/5/70 77/6/70 86/12/70 80/22/70
f 80/22/71 86/12/71 11/11/71 3/23/71
f 142/27/72 33/26/72 14/4/72 140/28/72
f 29/12/73 11/11/73 135/10/73 145/9/73
f 78/29/75 88/30/75 72/16/75 70/13/75
f 88/30/76 82/31/76 67/1/76 72/16/76
f 13/32/77 4/33/77 82/31/77 88/30/77
f 68/17/78 75/18/78 89/35/78 76/34/78
f 76/34/79 89/35/79 12/37/79 2/36/79
f 89/35/80 80/22/80 3/23/80 12/37/80
f 75/18/81 66/5/81 80/22/81 89/35/81
f 4/33/82 10/25/82 90/26/82 82/31/82
f 82/31/83 90/26/83 71/4/83 67/1/83
f 26/3/84 20/6/84 137/8/84 143/7/84
f 134/24/85 153/27/85 90/26/85 10/25/85
f 1/53/116 78/29/116 85/19/116 123/38/116
f 2/36/117 123/38/117 85/19/117 76/20/117
f 2/36/118 19/20/118 28/19/118 123/38/118
f 1/53/119 123/38/119 28/19/119 21/21/119
f 142/27/124 140/28/124 133/54/124 138/55/124
f 134/24/125 142/27/125 138/55/125 130/56/125
f 143/7/126 137/8/126 132/44/126 139/48/126
f 140/28/127 143/7/127 139/48/127 133/54/127
f 133/54/128 139/48/128 144/47/128 138/57/128
f 144/47/129 141/46/129 131/58/129 136/59/129
f 138/57/130 144/47/130 136/59/130 130/60/130
f 145/9/131 135/10/131 131/61/131 141/45/131
f 137/8/132 145/9/132 141/45/132 132/44/132
f 153/27/133 149/55/133 147/54/133 151/28/133
f 134/24/134 130/56/134 149/55/134 153/27/134
f 154/7/135 150/48/135 146/44/135 148/8/135
f 151/28/136 147/54/136 150/48/136 154/7/136
f 147/54/137 149/57/137 155/47/137 150/48/137
f 155/47/138 136/59/138 131/58/138 152/46/138
f 149/57/139 130/60/139 136/59/139 155/47/139
f 156/9/140 152/45/140 131/61/140 135/10/140
f 148/8/141 146/44/141 152/45/141 156/9/141
