# Blender 3.6.1
# www.blender.org
mtllib WaterPack_Large.mtl
o Cube.016
v 0.000000 1.578630 -1.000000
v 0.000000 3.254899 -0.883816
v 0.000000 1.777515 -0.419080
v 0.000000 3.254899 -0.419080
v 0.000000 2.777333 -0.302896
v 0.000000 2.245843 -0.302896
v 0.000000 2.777333 -1.000000
v 0.000000 2.245843 -1.000000
v -0.622243 2.244013 -0.419080
v -0.645885 2.776140 -0.419080
v -0.622243 2.244013 -0.883816
v -0.645885 2.776140 -0.883816
v -0.489092 1.824907 -0.477172
v -0.581297 3.205446 -0.477172
v -0.489092 1.824907 -0.825724
v -0.581297 3.205446 -0.825724
v 0.000000 2.510722 -1.000000
v 0.000000 3.047725 -0.985477
v 0.000000 3.047725 -0.317419
v 0.000000 2.510722 -0.302896
v 0.000000 3.328638 -0.651448
v 0.000000 1.980070 -0.317419
v -0.000000 2.185041 -1.000000
v -0.634821 3.040725 -0.429031
v -0.642930 2.508984 -0.883816
v -0.363011 3.246386 -0.873865
v -0.567934 1.985066 -0.873865
v -0.517762 1.793388 -0.651448
v -0.623757 3.237782 -0.651448
v -0.567934 1.985065 -0.429031
v -0.299079 1.785545 -0.429031
v -0.642930 2.508984 -0.419080
v -0.262584 1.730233 -0.985477
v -0.634821 3.040724 -0.873865
v -0.363011 3.246386 -0.429031
v -0.357790 2.245157 -0.317419
v -0.371384 2.776886 -0.317419
v -0.715579 2.243556 -0.651448
v -0.742768 2.775843 -0.651448
v -0.357790 2.245157 -0.985477
v -0.371384 2.776886 -0.985477
v -0.739369 2.508549 -0.651448
v -0.369291 3.045898 -0.971492
v -0.727817 3.043764 -0.651448
v -0.650339 1.981669 -0.651448
v -0.293119 1.716522 -0.651448
v -0.369685 2.510071 -0.317419
v -0.367198 3.317212 -0.651448
v -0.262584 2.033438 -0.985477
v -0.369291 3.045898 -0.331404
v -0.329370 1.981169 -0.331404
v -0.369685 2.510070 -0.985477
v -0.602527 3.328159 0.148778
v -0.602527 3.276577 0.148778
v -0.365104 3.276577 0.148778
v -0.365104 3.328159 0.148778
v -0.602527 2.686688 0.508074
v -0.602527 2.686688 0.456492
v -0.365104 2.686688 0.456492
v -0.365104 2.686688 0.508074
v -0.875497 2.341000 0.021402
v -0.823915 2.341000 0.021402
v -0.823915 2.103577 0.021402
v -0.875497 2.103577 0.021402
v -0.616278 3.325904 -0.206436
v -0.384109 3.330257 -0.200922
v -0.406940 3.468276 -0.225792
v -0.654746 3.431195 -0.231905
v -0.602527 3.069076 0.380769
v -0.365104 3.069075 0.380769
v -0.365104 3.095031 0.425344
v -0.602527 3.095032 0.425344
v -0.655495 2.440784 0.477129
v -0.772106 2.351163 0.363777
v -0.486473 2.310736 0.516500
v -0.700930 2.148789 0.395556
v -0.501857 2.304072 0.560532
v -0.737585 2.140354 0.423932
v -0.808761 2.342727 0.392153
v -0.670879 2.434120 0.521161
v -0.734847 2.033221 -0.248631
v -0.869028 2.027890 -0.301715
v -0.870524 2.277096 -0.348060
v -0.729234 2.279933 -0.294881
v 0.622243 2.244013 -0.419080
v 0.645885 2.776140 -0.419080
v 0.622243 2.244013 -0.883816
v 0.645885 2.776140 -0.883816
v 0.489092 1.824907 -0.477172
v 0.581297 3.205446 -0.477172
v 0.489092 1.824907 -0.825724
v 0.581297 3.205446 -0.825724
v 0.634821 3.040725 -0.429031
v 0.642930 2.508984 -0.883816
v 0.363011 3.246386 -0.873865
v 0.567934 1.985066 -0.873865
v 0.517762 1.793388 -0.651448
v 0.623757 3.237782 -0.651448
v 0.567934 1.985065 -0.429031
v 0.299079 1.785545 -0.429031
v 0.642930 2.508984 -0.419080
v 0.262584 1.730233 -0.985477
v 0.634821 3.040724 -0.873865
v 0.363011 3.246386 -0.429031
v 0.357790 2.245157 -0.317419
v 0.371384 2.776886 -0.317419
v 0.715579 2.243556 -0.651448
v 0.742768 2.775843 -0.651448
v 0.357790 2.245157 -0.985477
v 0.371384 2.776886 -0.985477
v 0.739369 2.508549 -0.651448
v 0.369291 3.045898 -0.971492
v 0.727817 3.043764 -0.651448
v 0.650339 1.981669 -0.651448
v 0.293119 1.716522 -0.651448
v 0.369685 2.510071 -0.317419
v 0.367198 3.317212 -0.651448
v 0.262584 2.033438 -0.985477
v 0.369291 3.045898 -0.331404
v 0.329370 1.981169 -0.331404
v 0.369685 2.510070 -0.985477
v 0.602527 3.328159 0.148778
v 0.602527 3.276577 0.148778
v 0.365104 3.276577 0.148778
v 0.365104 3.328159 0.148778
v 0.602527 2.686688 0.508074
v 0.602527 2.686688 0.456492
v 0.365104 2.686688 0.456492
v 0.365104 2.686688 0.508074
v 0.875497 2.341000 0.021402
v 0.823915 2.341000 0.021402
v 0.823915 2.103577 0.021402
v 0.875497 2.103577 0.021402
v 0.616278 3.325904 -0.206436
v 0.384109 3.330257 -0.200922
v 0.406940 3.468276 -0.225792
v 0.654746 3.431195 -0.231905
v 0.602527 3.069076 0.380769
v 0.365104 3.069075 0.380769
v 0.365104 3.095031 0.425344
v 0.602527 3.095032 0.425344
v 0.655495 2.440784 0.477129
v 0.772106 2.351163 0.363777
v 0.486473 2.310736 0.516500
v 0.700930 2.148789 0.395556
v 0.501857 2.304072 0.560532
v 0.737585 2.140354 0.423932
v 0.808761 2.342727 0.392153
v 0.670879 2.434120 0.521161
v 0.734847 2.033221 -0.248631
v 0.869028 2.027890 -0.301715
v 0.870524 2.277096 -0.348060
v 0.729234 2.279933 -0.294881
v 0.000000 1.677515 -0.651448
v -0.000000 2.185041 -1.100000
v 0.000000 1.578630 -1.100000
v -0.262584 1.730233 -1.100000
v -0.262584 2.033438 -1.100000
v 0.262584 1.730233 -1.100000
v 0.262584 2.033438 -1.100000
vn -0.9230 -0.0775 -0.3770
vn -0.9230 -0.0775 0.3770
vn -0.9232 -0.0110 0.3841
vn -0.9232 -0.0110 -0.3841
vn -0.0386 0.0529 -0.9979
vn -0.3463 0.0506 -0.9368
vn -0.2993 0.3956 -0.8683
vn -0.0355 0.4394 -0.8976
vn -0.9214 0.0522 -0.3850
vn -0.9214 0.0522 0.3850
vn -0.8484 0.4165 0.3268
vn -0.8484 0.4165 -0.3268
vn -0.8056 -0.5264 -0.2719
vn -0.8056 -0.5264 0.2719
vn -0.9102 -0.2157 -0.3536
vn -0.2882 -0.9242 0.2507
vn -0.3914 -0.9114 -0.1267
vn -0.3535 -0.0217 0.9352
vn -0.0399 -0.0009 0.9992
vn -0.0392 -0.0001 0.9992
vn -0.3480 -0.0030 0.9375
vn -0.2623 0.9260 -0.2716
vn -0.0301 0.9525 0.3031
vn -0.0301 0.9525 -0.3031
vn -1.0000 -0.0000 -0.0000
vn -0.4596 -0.1688 -0.8719
vn -0.3380 -0.1271 -0.9325
vn -0.0431 -0.0150 -0.9990
vn -0.3463 0.0506 0.9368
vn -0.0386 0.0529 0.9979
vn -0.0355 0.4394 0.8976
vn -0.2993 0.3956 0.8683
vn -0.3285 -0.4426 0.8344
vn -0.0405 -0.4497 0.8923
vn -0.0414 -0.0559 0.9976
vn -0.3669 -0.1004 0.9248
vn -0.0399 -0.0009 -0.9992
vn -0.3535 -0.0217 -0.9352
vn -0.3480 -0.0030 -0.9375
vn -0.0392 -0.0001 -0.9992
vn -0.0763 0.9463 0.3142
vn 0.9922 0.1125 -0.0532
vn 0.0109 -0.9894 -0.1451
vn -0.9719 -0.2320 0.0391
vn 0.0471 -0.9225 0.3832
vn 0.9857 0.1656 0.0322
vn -0.2034 0.9006 -0.3841
vn -0.9120 -0.3993 0.0944
vn -0.0000 0.1986 0.9801
vn 1.0000 -0.0000 -0.0000
vn -0.0000 -0.1943 -0.9810
vn -0.0000 -0.7454 -0.6667
vn -0.0000 0.7646 0.6445
vn -0.9560 -0.1360 0.2598
vn 0.1159 -0.9911 0.0657
vn 0.9598 0.1376 -0.2448
vn -0.0954 0.9954 -0.0007
vn 0.4831 0.1650 -0.8599
vn 0.0502 -0.1423 -0.9886
vn 0.5038 -0.8436 0.1861
vn 0.9443 -0.3019 0.1309
vn -0.4904 -0.1715 0.8545
vn -0.0574 0.1208 0.9910
vn -0.4694 0.8691 -0.1561
vn -0.9643 0.2253 -0.1394
vn -0.0387 -0.9717 0.2330
vn -0.9999 -0.0046 -0.0156
vn 0.0336 0.9841 -0.1745
vn 0.9552 0.0172 0.2955
vn -0.0957 -0.9897 0.1066
vn -0.8655 -0.1562 -0.4760
vn 0.1041 0.9898 -0.0970
vn 0.7544 0.1190 0.6455
vn 0.9102 0.2157 -0.3536
vn 0.2623 -0.9260 -0.2716
vn 0.9230 -0.0775 -0.3770
vn 0.9230 -0.0775 0.3770
vn 0.9232 -0.0110 0.3841
vn 0.9232 -0.0110 -0.3841
vn 0.0386 0.0529 -0.9979
vn 0.3463 0.0506 -0.9368
vn 0.2993 0.3956 -0.8683
vn 0.0355 0.4394 -0.8976
vn 0.9214 0.0522 -0.3850
vn 0.9214 0.0522 0.3850
vn 0.8484 0.4165 0.3268
vn 0.8484 0.4165 -0.3268
vn 0.8056 -0.5264 -0.2719
vn 0.8056 -0.5264 0.2719
vn 0.9102 -0.2157 -0.3536
vn 0.2882 -0.9242 0.2507
vn 0.3914 -0.9114 -0.1267
vn 0.3535 -0.0217 0.9352
vn 0.0399 -0.0009 0.9992
vn 0.0392 -0.0001 0.9992
vn 0.3480 -0.0030 0.9375
vn 0.2623 0.9260 -0.2716
vn 0.0301 0.9525 0.3031
vn 0.0301 0.9525 -0.3031
vn -0.5000 -0.8660 -0.0000
vn 0.4596 -0.1688 -0.8719
vn 0.3380 -0.1271 -0.9325
vn 0.0431 -0.0150 -0.9990
vn 0.3463 0.0506 0.9368
vn 0.0386 0.0529 0.9979
vn 0.0355 0.4394 0.8976
vn 0.2993 0.3956 0.8683
vn 0.3285 -0.4426 0.8344
vn 0.0405 -0.4497 0.8923
vn 0.0414 -0.0559 0.9976
vn 0.3669 -0.1004 0.9248
vn 0.0399 -0.0009 -0.9992
vn 0.3535 -0.0217 -0.9352
vn 0.3480 -0.0030 -0.9375
vn 0.0392 -0.0001 -0.9992
vn 0.0763 0.9463 0.3142
vn -0.9922 0.1125 -0.0532
vn -0.0109 -0.9894 -0.1451
vn 0.9719 -0.2320 0.0391
vn -0.0471 -0.9225 0.3832
vn -0.9857 0.1656 0.0322
vn 0.2034 0.9006 -0.3841
vn 0.9120 -0.3993 0.0944
vn 0.9560 -0.1360 0.2598
vn -0.1159 -0.9911 0.0657
vn -0.9598 0.1376 -0.2448
vn 0.0954 0.9954 -0.0007
vn -0.4831 0.1650 -0.8599
vn -0.0502 -0.1423 -0.9886
vn -0.5038 -0.8436 0.1861
vn -0.9443 -0.3019 0.1309
vn 0.4904 -0.1715 0.8545
vn 0.0574 0.1208 0.9910
vn 0.4694 0.8691 -0.1561
vn 0.9643 0.2253 -0.1394
vn 0.0387 -0.9717 0.2330
vn 0.9999 -0.0046 -0.0156
vn -0.0336 0.9841 -0.1745
vn -0.9552 0.0172 0.2955
vn 0.0957 -0.9897 0.1066
vn 0.8655 -0.1562 -0.4760
vn -0.1041 0.9898 -0.0970
vn -0.7544 0.1190 0.6455
vn -0.9102 0.2157 -0.3536
vn -0.2623 -0.9260 -0.2716
vn 0.3203 -0.9417 0.1032
vn 0.0801 -0.9347 0.3463
vn -0.0801 -0.9347 0.3463
vn -0.3203 -0.9417 0.1032
vn -0.0000 -0.0000 -1.0000
vn 0.5000 0.8660 -0.0000
vn -0.5000 0.8660 -0.0000
vn 0.5000 -0.8660 -0.0000
vt 0.458333 0.520833
vt 0.458333 0.625000
vt 0.500000 0.625000
vt 0.500000 0.520833
vt 0.458333 0.729167
vt 0.500000 0.729167
vt 0.541667 0.729167
vt 0.541667 0.625000
vt 0.541667 0.520833
vt 0.541667 0.375000
vt 0.541667 0.440104
vt 0.583333 0.439670
vt 0.583333 0.375000
vt 0.583478 0.519097
vt 0.625000 0.500000
vt 0.625000 0.437500
vt 0.625000 0.375000
vt 0.583912 0.625000
vt 0.583478 0.730903
vt 0.625000 0.750000
vt 0.630787 0.625000
vt 0.375000 0.500000
vt 0.369213 0.625000
vt 0.416088 0.625000
vt 0.416522 0.519097
vt 0.375000 0.750000
vt 0.416522 0.730903
vt 0.311921 0.625000
vt 0.312500 0.750000
vt 0.312500 0.500000
vt 0.458333 0.809896
vt 0.500000 0.809896
vt 0.458333 0.875000
vt 0.500000 0.875000
vt 0.541667 0.875000
vt 0.541667 0.809896
vt 0.688079 0.625000
vt 0.687500 0.500000
vt 0.687500 0.750000
vt 0.750000 0.750000
vt 0.750000 0.625000
vt 0.750000 0.500000
vt 0.375000 0.437500
vt 0.416667 0.439670
vt 0.458333 0.440104
vt 0.440111 0.375064
vt 0.458333 0.375000
vt 0.583333 0.810330
vt 0.583333 0.875000
vt 0.625000 0.875000
vt 0.625000 0.812500
vt 0.375000 0.812500
vt 0.416667 0.810330
vt 0.375000 0.875000
vt 0.416667 0.875000
vt 0.500000 0.440104
vt 0.500000 0.375000
vt 0.000000 0.000000
vt 0.344039 0.312500
vt 0.315394 0.312500
vt 0.343750 0.375000
vt 0.312500 0.375000
vt 0.312500 0.406250
vt 0.208044 0.312500
vt 0.208261 0.365451
vt 0.229167 0.312500
vt 0.229167 0.364583
vt 0.375000 0.375000
s 0
usemtl BLACK
f 33/43/25 49/44/25 158/44/25 157/43/25
f 53/58/41 56/58/41 67/59/41 68/60/41
f 56/58/42 55/58/42 66/61/42 67/59/42
f 55/58/43 54/58/43 65/62/43 66/63/43
f 54/58/44 53/58/44 68/60/44 65/62/44
f 66/63/45 65/62/45 14/20/45 35/51/45
f 67/59/46 66/61/46 35/39/46 48/37/46
f 68/60/47 67/59/47 48/37/47 29/21/47
f 65/62/48 68/60/48 29/21/48 14/20/48
f 57/58/49 60/58/49 71/58/49 72/58/49
f 60/58/50 59/58/50 70/58/50 71/58/50
f 59/58/51 58/58/51 69/58/51 70/58/51
f 58/58/25 57/58/25 72/58/25 69/58/25
f 70/58/52 69/58/52 54/58/52 55/58/52
f 71/58/50 70/58/50 55/58/50 56/58/50
f 72/58/53 71/58/53 56/58/53 53/58/53
f 69/58/25 72/58/25 53/58/25 54/58/25
f 61/58/54 64/58/54 78/58/54 79/58/54
f 64/58/55 63/58/55 76/58/55 78/58/55
f 63/58/56 62/58/56 74/58/56 76/58/56
f 62/58/57 61/58/57 79/58/57 74/58/57
f 76/58/58 74/58/58 73/58/58 75/58/58
f 75/58/59 73/58/59 58/58/59 59/58/59
f 78/58/60 76/58/60 75/58/60 77/58/60
f 77/58/61 75/58/61 59/58/61 60/58/61
f 79/58/62 78/58/62 77/58/62 80/58/62
f 80/58/63 77/58/63 60/58/63 57/58/63
f 74/58/64 79/58/64 80/58/64 73/58/64
f 73/58/65 80/58/65 57/58/65 58/58/65
f 63/58/66 64/58/66 82/64/66 81/65/66
f 64/58/67 61/58/67 83/66/67 82/64/67
f 61/58/68 62/58/68 84/67/68 83/66/68
f 62/58/69 63/58/69 81/65/69 84/67/69
f 81/65/70 82/64/70 45/24/70 30/27/70
f 82/64/71 83/66/71 38/2/71 45/24/71
f 83/66/72 84/67/72 9/5/72 38/2/72
f 84/67/73 81/65/73 30/27/73 9/5/73
f 38/58/74 9/58/74 30/58/74 45/58/74
f 29/58/75 48/58/75 35/58/75 14/58/75
f 1/68/100 33/30/100 157/30/100 156/68/100
f 122/58/116 137/60/116 136/59/116 125/58/116
f 125/58/117 136/59/117 135/61/117 124/58/117
f 124/58/118 135/63/118 134/62/118 123/58/118
f 123/58/119 134/62/119 137/60/119 122/58/119
f 135/63/120 104/51/120 90/20/120 134/62/120
f 136/59/121 117/37/121 104/39/121 135/61/121
f 137/60/122 98/21/122 117/37/122 136/59/122
f 134/62/123 90/20/123 98/21/123 137/60/123
f 126/58/49 141/58/49 140/58/49 129/58/49
f 129/58/25 140/58/25 139/58/25 128/58/25
f 128/58/51 139/58/51 138/58/51 127/58/51
f 127/58/50 138/58/50 141/58/50 126/58/50
f 139/58/52 124/58/52 123/58/52 138/58/52
f 140/58/25 125/58/25 124/58/25 139/58/25
f 141/58/53 122/58/53 125/58/53 140/58/53
f 138/58/50 123/58/50 122/58/50 141/58/50
f 130/58/124 148/58/124 147/58/124 133/58/124
f 133/58/125 147/58/125 145/58/125 132/58/125
f 132/58/126 145/58/126 143/58/126 131/58/126
f 131/58/127 143/58/127 148/58/127 130/58/127
f 145/58/128 144/58/128 142/58/128 143/58/128
f 144/58/129 128/58/129 127/58/129 142/58/129
f 147/58/130 146/58/130 144/58/130 145/58/130
f 146/58/131 129/58/131 128/58/131 144/58/131
f 148/58/132 149/58/132 146/58/132 147/58/132
f 149/58/133 126/58/133 129/58/133 146/58/133
f 143/58/134 142/58/134 149/58/134 148/58/134
f 142/58/135 127/58/135 126/58/135 149/58/135
f 132/58/136 150/65/136 151/64/136 133/58/136
f 133/58/137 151/64/137 152/66/137 130/58/137
f 130/58/138 152/66/138 153/67/138 131/58/138
f 131/58/139 153/67/139 150/65/139 132/58/139
f 150/65/140 99/27/140 114/24/140 151/64/140
f 151/64/141 114/24/141 107/2/141 152/66/141
f 152/66/142 107/2/142 85/5/142 153/67/142
f 153/67/143 85/5/143 99/27/143 150/65/143
f 107/58/144 114/58/144 99/58/144 85/58/144
f 98/58/145 90/58/145 104/58/145 117/58/145
f 156/68/150 157/43/150 158/44/150 155/46/150
f 156/68/150 155/46/150 160/44/150 159/43/150
f 23/46/151 118/44/151 160/44/151 155/46/151
f 49/44/152 23/46/152 155/46/152 158/44/152
f 118/44/50 102/43/50 159/43/50 160/44/50
f 102/43/153 1/68/153 156/68/153 159/43/153
usemtl white
f 11/1/1 38/2/1 42/3/1 25/4/1
f 38/2/2 9/5/2 32/6/2 42/3/2
f 42/3/3 32/6/3 10/7/3 39/8/3
f 25/4/4 42/3/4 39/8/4 12/9/4
f 7/10/5 41/11/5 43/12/5 18/13/5
f 41/11/6 12/9/6 34/14/6 43/12/6
f 43/12/7 34/14/7 16/15/7 26/16/7
f 18/13/8 43/12/8 26/16/8 2/17/8
f 12/9/9 39/8/9 44/18/9 34/14/9
f 39/8/10 10/7/10 24/19/10 44/18/10
f 44/18/11 24/19/11 14/20/11 29/21/11
f 34/14/12 44/18/12 29/21/12 16/15/12
f 15/22/13 28/23/13 45/24/13 27/25/13
f 28/23/14 13/26/14 30/27/14 45/24/14
f 27/25/15 45/24/15 38/2/15 11/1/15
f 46/28/16 31/29/16 13/26/16 28/23/16
f 33/30/17 46/28/17 28/23/17 15/22/17
f 9/5/18 36/31/18 47/32/18 32/6/18
f 36/31/19 6/33/19 20/34/19 47/32/19
f 47/32/20 20/34/20 5/35/20 37/36/20
f 32/6/21 47/32/21 37/36/21 10/7/21
f 16/15/22 29/21/22 48/37/22 26/38/22
f 48/37/23 35/39/23 4/40/23 21/41/23
f 26/38/24 48/37/24 21/41/24 2/42/24
f 33/43/26 15/22/26 27/25/26 49/44/26
f 49/44/27 27/25/27 11/1/27 40/45/27
f 23/46/28 49/44/28 40/45/28 8/47/28
f 10/7/29 37/36/29 50/48/29 24/19/29
f 37/36/30 5/35/30 19/49/30 50/48/30
f 50/48/31 19/49/31 4/50/31 35/51/31
f 24/19/32 50/48/32 35/51/32 14/20/32
f 13/26/33 31/52/33 51/53/33 30/27/33
f 31/52/34 3/54/34 22/55/34 51/53/34
f 51/53/35 22/55/35 6/33/35 36/31/35
f 30/27/36 51/53/36 36/31/36 9/5/36
f 8/47/37 40/45/37 52/56/37 17/57/37
f 40/45/38 11/1/38 25/4/38 52/56/38
f 52/56/39 25/4/39 12/9/39 41/11/39
f 17/57/40 52/56/40 41/11/40 7/10/40
f 87/1/76 94/4/76 111/3/76 107/2/76
f 107/2/77 111/3/77 101/6/77 85/5/77
f 111/3/78 108/8/78 86/7/78 101/6/78
f 94/4/79 88/9/79 108/8/79 111/3/79
f 7/10/80 18/13/80 112/12/80 110/11/80
f 110/11/81 112/12/81 103/14/81 88/9/81
f 112/12/82 95/16/82 92/15/82 103/14/82
f 18/13/83 2/17/83 95/16/83 112/12/83
f 88/9/84 103/14/84 113/18/84 108/8/84
f 108/8/85 113/18/85 93/19/85 86/7/85
f 113/18/86 98/21/86 90/20/86 93/19/86
f 103/14/87 92/15/87 98/21/87 113/18/87
f 91/22/88 96/25/88 114/24/88 97/23/88
f 97/23/89 114/24/89 99/27/89 89/26/89
f 96/25/90 87/1/90 107/2/90 114/24/90
f 115/28/91 97/23/91 89/26/91 100/29/91
f 102/30/92 91/22/92 97/23/92 115/28/92
f 85/5/93 101/6/93 116/32/93 105/31/93
f 105/31/94 116/32/94 20/34/94 6/33/94
f 116/32/95 106/36/95 5/35/95 20/34/95
f 101/6/96 86/7/96 106/36/96 116/32/96
f 92/15/97 95/38/97 117/37/97 98/21/97
f 117/37/98 21/41/98 4/40/98 104/39/98
f 95/38/99 2/42/99 21/41/99 117/37/99
f 102/43/101 118/44/101 96/25/101 91/22/101
f 118/44/102 109/45/102 87/1/102 96/25/102
f 23/46/103 8/47/103 109/45/103 118/44/103
f 86/7/104 93/19/104 119/48/104 106/36/104
f 106/36/105 119/48/105 19/49/105 5/35/105
f 119/48/106 104/51/106 4/50/106 19/49/106
f 93/19/107 90/20/107 104/51/107 119/48/107
f 89/26/108 99/27/108 120/53/108 100/52/108
f 100/52/109 120/53/109 22/55/109 3/54/109
f 120/53/110 105/31/110 6/33/110 22/55/110
f 99/27/111 85/5/111 105/31/111 120/53/111
f 8/47/112 17/57/112 121/56/112 109/45/112
f 109/45/113 121/56/113 94/4/113 87/1/113
f 121/56/114 110/11/114 88/9/114 94/4/114
f 17/57/115 7/10/115 110/11/115 121/56/115
f 1/68/146 102/43/146 115/28/146 154/58/146
f 3/54/147 154/58/147 115/28/147 100/29/147
f 3/54/148 31/29/148 46/28/148 154/58/148
f 1/68/149 154/58/149 46/28/149 33/30/149
